<svg xmlns="http://www.w3.org/2000/svg" width="47.03" height="47.027" viewBox="0 0 47.03 47.027">
  <g id="link-svgrepo-com" transform="translate(-0.001 -0.011)">
    <path id="Path_14" data-name="Path 14" d="M152.738,3.781,151.1,2.334a9.229,9.229,0,0,0-13.026.783L133.392,8.4a2.9,2.9,0,0,0,.245,4.082l.44.39a2.891,2.891,0,0,0,4.084-.245l4.683-5.284a2.863,2.863,0,0,1,4.033-.243l1.635,1.45a2.858,2.858,0,0,1,.243,4.032L138.513,24.136a2.852,2.852,0,0,1-3.449.642,3.125,3.125,0,0,0-3.776.7l-.08.09a3.128,3.128,0,0,0,.892,4.847,9.215,9.215,0,0,0,11.182-2.057l10.24-11.552A9.241,9.241,0,0,0,152.738,3.781Z" transform="translate(-108.81 0)" fill="#404953"/>
    <path id="Path_15" data-name="Path 15" d="M22.2,112.951l-.441-.39a2.9,2.9,0,0,0-4.083.247L13,118.091a2.861,2.861,0,0,1-4.031.244l-1.637-1.452a2.856,2.856,0,0,1-.243-4.03L17.328,101.3a2.862,2.862,0,0,1,3.4-.667,3.294,3.294,0,0,0,3.909-.771l.037-.041a3.082,3.082,0,0,0-.853-4.761,9.194,9.194,0,0,0-11.258,2.016L2.32,108.625h0A9.239,9.239,0,0,0,3.1,121.652l1.637,1.45a9.24,9.24,0,0,0,13.028-.784l4.682-5.283A2.891,2.891,0,0,0,22.2,112.951Z" transform="translate(0 -78.382)" fill="#404953"/>
  </g>
</svg>
